<svg id="Layer_1" data-name="Layer 1" xmlns="http://www.w3.org/2000/svg" viewBox="0 0 1000 1000"><path d="M101.94,430.56h25.81a2.28,2.28,0,0,1,2.28,2.28v76.63a2.28,2.28,0,0,0,2.28,2.28H199a2.28,2.28,0,0,0,2.28-2.28V432.84a2.28,2.28,0,0,1,2.28-2.28h25.89a2.28,2.28,0,0,1,2.28,2.28v94.93a2.28,2.28,0,0,1-2.28,2.28H101.94a2.28,2.28,0,0,1-2.28-2.28V432.84A2.28,2.28,0,0,1,101.94,430.56Z"/><path d="M268.41,430.66h18.32a2.45,2.45,0,0,1,2.45,2.45v76.5a2.45,2.45,0,0,0,2.45,2.45h96.82a2.45,2.45,0,0,1,2.45,2.45V527.6a2.45,2.45,0,0,1-2.45,2.45h-120A2.45,2.45,0,0,1,266,527.6V433.11A2.45,2.45,0,0,1,268.41,430.66Z"/><path d="M423.41,430.66h18.32a2.45,2.45,0,0,1,2.45,2.45v76.5a2.45,2.45,0,0,0,2.45,2.45h96.82a2.45,2.45,0,0,1,2.45,2.45V527.6a2.45,2.45,0,0,1-2.45,2.45h-120A2.45,2.45,0,0,1,421,527.6V433.11A2.45,2.45,0,0,1,423.41,430.66Z"/><path d="M694.59,428.72c-13,0-24.79,4.2-27.54,5.56a2.55,2.55,0,0,1-1.31.26l-1.15-.07a2.74,2.74,0,0,1-1.08-.31c-2.38-1.28-13.72-6.65-35.81-6.65-25.06,0-59.81,18.76-59.81,59.82s27.52,43.05,30,43.05,27.37,1.08,27.37-34.9c0-27.46-16.47-32.89-24.27-33.92a2.62,2.62,0,0,1-1.72-4.2c3.4-4.4,9.56-7.94,20.92-10.94,10.19-2.68,20.37-.35,25.61,1.31a2.59,2.59,0,0,1,1.26,4c-3.53,4.73-9.8,15.72-9.8,34.17,0,25.68,9.69,44.45,29.68,44.45s28.9-25.53,28.9-43.06c0-14.09-8-30-11.11-36.16a2.61,2.61,0,0,1,1.85-3.76,51.33,51.33,0,0,1,8.65-.55c12,0,28.14,10.79,28.14,33.86,0,18.28-9.45,32.6-13.37,37.75a2.61,2.61,0,0,0,.55,3.69l11.4,8.29a2.6,2.6,0,0,0,3.19-.1c5.15-4.26,20.83-19.94,20.83-52.71C746,438.43,709.51,428.72,694.59,428.72ZM604,495.53c.67,9.32-2.26,17.13-6.54,17.43s-8.28-7-9-16.33,2.27-17.13,6.55-17.44S603.34,486.2,604,495.53Zm62.3,16.4c-4.58,0-9.51-11-9.51-24.53s4.93-24.52,9.51-24.52,9.51,11,9.51,24.52S670.89,511.93,666.3,511.93Z"/><path d="M794.85,457s2.92-11.41,11.41-11.41,13,5.09,13.92,11.12a3.77,3.77,0,0,1,0,.58v68.32a3.52,3.52,0,0,0,3.52,3.51h14.91a3.51,3.51,0,0,0,3.51-3.51V457.69a3.48,3.48,0,0,1,.33-1.49c1.14-2.4,5.29-9.65,14-9.65,10.46,0,16.51,9.33,16.61,10.41s3.85,9.58,3.85,27.42-6.46,42.29-14.15,47.51-16.76,8.31-20,8.31H787.24s-23.3-2-23.3,24v6.53a3.52,3.52,0,0,0,3.52,3.51h15.28a3.49,3.49,0,0,0,3.43-2.72c1.06-4.86,4.14-14.5,11.81-14.5h52.1c.31,0,2.78-.51,3.08-.59,4-1.06,32.16-9.13,40.36-35.08,8.3-26.26,6.79-43.06,6.58-44.93,0-.12,0-.24,0-.36,0-3.19-.61-47.3-41.5-47.38h-.24c-1.4.08-15,1-22.91,7.64a3.53,3.53,0,0,1-4.57.05c-3.51-2.93-11.21-7.69-24.27-7.69C787.73,428.72,772,443.58,772,457c0,11.41.26,55.86.34,68.68a3.5,3.5,0,0,0,3.51,3.49h15.45a3.51,3.51,0,0,0,3.51-3.51V457"/><path d="M100,573.36V544.28h12.32a8.25,8.25,0,0,1,3.71.84,9.72,9.72,0,0,1,2.93,2.21,10.43,10.43,0,0,1,1.92,3.12,9.26,9.26,0,0,1,.7,3.5,10,10,0,0,1-.66,3.58,9.83,9.83,0,0,1-1.84,3.09,8.82,8.82,0,0,1-2.87,2.17,8.24,8.24,0,0,1-3.68.82h-6.88v9.75Zm5.65-14.7h6.55a3.26,3.26,0,0,0,2.6-1.27,5.23,5.23,0,0,0,1-3.44,5.65,5.65,0,0,0-.32-2,5,5,0,0,0-.86-1.49,3.39,3.39,0,0,0-1.25-.92,3.58,3.58,0,0,0-1.46-.31h-6.3Z"/><path d="M193.4,544.28h5l11,29.08h-5.81l-2.7-7.25H190.78l-2.66,7.25H182.3Zm6.51,17.86-4-11.43-4.18,11.43Z"/><path d="M293,549.24h-9.3v24.12h-5.61V549.24h-9.29v-5H293Z"/><path d="M379.74,549.24h-9.3v24.12h-5.61V549.24h-9.29v-5h24.2Z"/><path d="M450.18,544.28h5l11.06,29.08h-5.82l-2.7-7.25H447.56l-2.66,7.25h-5.82Zm6.51,17.86-4-11.43-4.18,11.43Z"/><path d="M530.86,573.36V544.28h12.86a8.28,8.28,0,0,1,3.71.84,9.68,9.68,0,0,1,2.92,2.21,10.66,10.66,0,0,1,1.93,3.12A9.44,9.44,0,0,1,553,554a9.69,9.69,0,0,1-1.41,5.14,8.17,8.17,0,0,1-3.83,3.34l6.64,10.93H548l-5.94-9.75h-5.57v9.75Zm5.65-14.7h7.09a3,3,0,0,0,1.45-.37,3.85,3.85,0,0,0,1.17-1,5.32,5.32,0,0,0,.78-1.5,5.81,5.81,0,0,0,.28-1.84,5.19,5.19,0,0,0-.33-1.88,4.64,4.64,0,0,0-.88-1.5,3.88,3.88,0,0,0-1.27-1,3.29,3.29,0,0,0-1.45-.35h-6.84Z"/><path d="M627.35,544.28h5l11.06,29.08h-5.81l-2.71-7.25H624.73l-2.67,7.25h-5.81Zm6.51,17.86-4-11.43-4.18,11.43Z"/><path d="M708,573.36V544.28h5.65v29.08Z"/><path d="M351.6,439.69h-3.44a12.84,12.84,0,0,0-1.56-3.78l2.42-2.43a1,1,0,0,0,0-1.36l-2.86-2.87a1,1,0,0,0-1.37,0l-2.42,2.43a13.2,13.2,0,0,0-3.79-1.57v-3.43a1,1,0,0,0-1-1h-4.05a1,1,0,0,0-1,1v3.43a13.14,13.14,0,0,0-3.78,1.57l-2.43-2.43a1,1,0,0,0-1.36,0l-2.86,2.87a1,1,0,0,0,0,1.36l2.42,2.43a13.14,13.14,0,0,0-1.57,3.78h-3.43a1,1,0,0,0-1,1v4a1,1,0,0,0,1,1H323a13.2,13.2,0,0,0,1.57,3.79l-2.42,2.42a1,1,0,0,0,0,1.37l2.86,2.86a1,1,0,0,0,1.36,0l2.43-2.43a12.6,12.6,0,0,0,3.78,1.57v3.43a1,1,0,0,0,1,1h4.05a1,1,0,0,0,1-1v-3.43a12.66,12.66,0,0,0,3.79-1.57l2.42,2.43a1,1,0,0,0,1.37,0l2.86-2.86a1,1,0,0,0,0-1.37l-2.42-2.42a12.9,12.9,0,0,0,1.56-3.79h3.44a1,1,0,0,0,1-1v-4A1,1,0,0,0,351.6,439.69Zm-16,10a7.24,7.24,0,1,1,7.25-7.24A7.24,7.24,0,0,1,335.59,449.69Z"/></svg>