<svg id="Layer_1" data-name="Layer 1" xmlns="http://www.w3.org/2000/svg" viewBox="0 0 1000 1000"><defs><style>.cls-1{fill:#333;}</style></defs><path class="cls-1" d="M503.49,479.09H471.34s-21.67-6.29-21.67-25.87V372.14s-57.31,25.17-57.31,92.27,55.92,95.06,55.92,95.06V700.66s-8.39,1.4-14-23.76c-3.84-17.27-28-78.29-47.53-107.65s-68.5-103.44-12.59-187.32c0,0,34.95-62.91,128.62-65.71V286.87s-85.28-4.2-145.39,71.29-28,160.77-28,160.77,12.58,30.75,29.36,53.12,41.94,75.49,48.93,118.83,32.15,41.93,32.15,41.93h64.3"/><path class="cls-1" d="M501.9,479.09h32.15s21.67-6.29,21.67-25.87V372.14S613,397.31,613,464.41s-55.92,95.06-55.92,95.06V700.66s8.39,1.4,14-23.76c3.84-17.27,28-78.29,47.53-107.65s68.5-103.44,12.59-187.32c0,0-34.75-62.91-128.41-65.71l-.21-29.35s85.28-4.2,145.39,71.29,28,160.77,28,160.77-12.58,30.75-29.36,53.12-41.94,75.49-48.92,118.83-32.16,41.93-32.16,41.93H501.2"/><path class="cls-1" d="M556.72,746.79h-112a3.07,3.07,0,0,0-2.64,1.53l-8.48,10.23a3,3,0,0,0,0,3.05L442,771.83a3.06,3.06,0,0,0,2.64,1.52h112a3.06,3.06,0,0,0,2.64-1.52l8.48-10.23a3,3,0,0,0,0-3.05l-8.48-10.23A3.07,3.07,0,0,0,556.72,746.79Z"/><path class="cls-1" d="M548.81,783.62H452.59a2.63,2.63,0,0,0-2.27,1.31L443,793.71a2.61,2.61,0,0,0,0,2.62l7.28,8.79a2.63,2.63,0,0,0,2.27,1.31h96.22a2.63,2.63,0,0,0,2.27-1.31l7.28-8.79a2.61,2.61,0,0,0,0-2.62l-7.28-8.78A2.63,2.63,0,0,0,548.81,783.62Z"/><path class="cls-1" d="M500.7,819.49h49.63c0,16.87-22.41,30.75-49.63,30.75s-49.63-13.88-49.63-30.75v-.14Z"/><path class="cls-1" d="M515.38,239.61V160.78a6,6,0,0,0-2.59-4.94l-7.29-5a6,6,0,0,0-6.81,0l-7.28,5a6,6,0,0,0-2.59,4.94v78.83a6,6,0,0,0,2.59,4.94l7.28,5a6,6,0,0,0,6.81,0l7.29-5A6,6,0,0,0,515.38,239.61Z"/><path class="cls-1" d="M273.11,456H194.27a6,6,0,0,0-4.93,2.59l-5,7.29a6,6,0,0,0,0,6.8l5,7.29a6,6,0,0,0,4.93,2.59h78.84A6,6,0,0,0,278,480l5-7.29a6,6,0,0,0,0-6.8l-5-7.29A6,6,0,0,0,273.11,456Z"/><path class="cls-1" d="M805.73,456H726.89a6,6,0,0,0-4.93,2.59l-5,7.29a6,6,0,0,0,0,6.8l5,7.29a6,6,0,0,0,4.93,2.59h78.84a6,6,0,0,0,4.93-2.59l5-7.29a6,6,0,0,0,0-6.8l-5-7.29A6,6,0,0,0,805.73,456Z"/><path class="cls-1" d="M725.29,673.71,669.54,618a6,6,0,0,0-5.32-1.65l-8.7,1.6a6,6,0,0,0-4.82,4.81l-1.6,8.71a6,6,0,0,0,1.66,5.32l55.75,55.74a6,6,0,0,0,5.32,1.66l8.7-1.6a6,6,0,0,0,4.82-4.81l1.59-8.71A6,6,0,0,0,725.29,673.71Z"/><path class="cls-1" d="M706.51,241.92l-55.75,55.74A6,6,0,0,0,649.1,303l1.6,8.71a6,6,0,0,0,4.82,4.81l8.7,1.6a6,6,0,0,0,5.32-1.66l55.75-55.74a6,6,0,0,0,1.65-5.32l-1.59-8.71a6,6,0,0,0-4.82-4.81l-8.7-1.6A6,6,0,0,0,706.51,241.92Z"/><path class="cls-1" d="M349.24,297.66l-55.75-55.74a6,6,0,0,0-5.32-1.66l-8.7,1.6a6,6,0,0,0-4.82,4.81l-1.59,8.71a6,6,0,0,0,1.65,5.32l55.75,55.74a6,6,0,0,0,5.32,1.66l8.7-1.6a6,6,0,0,0,4.82-4.81l1.6-8.71A6,6,0,0,0,349.24,297.66Z"/><path class="cls-1" d="M330.46,618l-55.75,55.75a6,6,0,0,0-1.65,5.32l1.59,8.71a6,6,0,0,0,4.82,4.81l8.7,1.6a6,6,0,0,0,5.32-1.66l55.75-55.74a6,6,0,0,0,1.66-5.32l-1.6-8.71a6,6,0,0,0-4.82-4.81l-8.7-1.6A6,6,0,0,0,330.46,618Z"/></svg>