<svg id="Layer_1" data-name="Layer 1" xmlns="http://www.w3.org/2000/svg" viewBox="0 0 1000 1000"><path d="M648,358.16c-58.69-73.7-141.36-71.44-145.24-71.29-2.57-.11-86.15-3-145.33,71.29-60.11,75.49-28,160.77-28,160.77s12.58,30.75,29.36,53.12,41.94,75.49,48.93,118.83,32.15,41.93,32.15,41.93H565.5s25.17,1.4,32.16-41.93,32.15-96.46,48.93-118.83,29.35-53.12,29.35-53.12S708.09,433.65,648,358.16ZM618.63,569.25c-19.58,29.36-43.7,90.38-47.53,107.65-5.6,25.16-14,23.76-14,23.76V559.47s55.91-28,55.91-95.06-57.31-92.27-57.31-92.27v81.08c0,19.58-21.67,25.87-21.67,25.87H471.34s-21.66-6.29-21.66-25.87V372.14s-57.32,25.17-57.32,92.27,55.92,95.06,55.92,95.06V700.66s-8.39,1.4-14-23.76c-3.84-17.27-28-78.29-47.53-107.65s-68.5-103.44-12.58-187.32c0,0,34.95-62.91,128.61-65.7,93.66,2.79,128.41,65.7,128.41,65.7C687.13,465.81,638.2,539.9,618.63,569.25Z"/><path d="M556.71,746.79h-112a3.07,3.07,0,0,0-2.64,1.53l-8.48,10.23a3,3,0,0,0,0,3.05L442,771.83a3.06,3.06,0,0,0,2.64,1.52h112a3.07,3.07,0,0,0,2.65-1.52l8.48-10.23a3,3,0,0,0,0-3.05l-8.48-10.23A3.08,3.08,0,0,0,556.71,746.79Z"/><path d="M548.81,783.62H452.59a2.63,2.63,0,0,0-2.27,1.31L443,793.71a2.61,2.61,0,0,0,0,2.62l7.28,8.79a2.63,2.63,0,0,0,2.27,1.31h96.22a2.63,2.63,0,0,0,2.27-1.31l7.28-8.79a2.61,2.61,0,0,0,0-2.62l-7.28-8.78A2.63,2.63,0,0,0,548.81,783.62Z"/><path d="M500.7,819.49h49.63c0,16.87-22.41,30.75-49.63,30.75s-49.63-13.88-49.63-30.75v-.14Z"/><path d="M515.38,239.61V160.78a6,6,0,0,0-2.59-4.94l-7.29-5a6,6,0,0,0-6.81,0l-7.28,5a6,6,0,0,0-2.59,4.94v78.83a6,6,0,0,0,2.59,4.94l7.28,5a6,6,0,0,0,6.81,0l7.29-5A6,6,0,0,0,515.38,239.61Z"/><path d="M273.11,456H194.27a6,6,0,0,0-4.93,2.59l-5,7.29a6,6,0,0,0,0,6.8l5,7.29a6,6,0,0,0,4.93,2.59h78.84A6,6,0,0,0,278,480l5-7.29a6,6,0,0,0,0-6.8l-5-7.29A6,6,0,0,0,273.11,456Z"/><path d="M805.73,456H726.89a6,6,0,0,0-4.93,2.59l-5,7.29a6,6,0,0,0,0,6.8l5,7.29a6,6,0,0,0,4.93,2.59h78.84a6,6,0,0,0,4.93-2.59l5-7.29a6,6,0,0,0,0-6.8l-5-7.29A6,6,0,0,0,805.73,456Z"/><path d="M725.29,673.71,669.54,618a6,6,0,0,0-5.32-1.65l-8.7,1.6a6,6,0,0,0-4.82,4.81l-1.6,8.71a6,6,0,0,0,1.66,5.32l55.75,55.74a6,6,0,0,0,5.32,1.66l8.7-1.6a6,6,0,0,0,4.82-4.81l1.59-8.71A6,6,0,0,0,725.29,673.71Z"/><path d="M706.51,241.92l-55.75,55.74A6,6,0,0,0,649.1,303l1.6,8.71a6,6,0,0,0,4.82,4.81l8.7,1.6a6,6,0,0,0,5.32-1.66l55.75-55.74a6,6,0,0,0,1.65-5.32l-1.59-8.71a6,6,0,0,0-4.82-4.81l-8.7-1.6A6,6,0,0,0,706.51,241.92Z"/><path d="M349.24,297.66l-55.75-55.74a6,6,0,0,0-5.32-1.66l-8.7,1.6a6,6,0,0,0-4.82,4.81l-1.59,8.71a6,6,0,0,0,1.65,5.32l55.75,55.74a6,6,0,0,0,5.32,1.66l8.7-1.6a6,6,0,0,0,4.82-4.81l1.6-8.71A6,6,0,0,0,349.24,297.66Z"/><path d="M330.46,618l-55.75,55.75a6,6,0,0,0-1.65,5.32l1.59,8.71a6,6,0,0,0,4.82,4.81l8.7,1.6a6,6,0,0,0,5.32-1.66l55.75-55.74a6,6,0,0,0,1.66-5.32l-1.6-8.71a6,6,0,0,0-4.82-4.81l-8.7-1.6A6,6,0,0,0,330.46,618Z"/></svg>