<svg id="Layer_1" data-name="Layer 1" xmlns="http://www.w3.org/2000/svg" viewBox="0 0 1000 1000"><defs><style>.cls-1{fill:#fff;}.cls-2{fill:none;stroke:#9ebedb;stroke-miterlimit:10;}</style></defs><path class="cls-1" d="M597,315.12c-42.09-52.85-101.42-51.1-103.92-51-2.36-.1-61.79-1.92-103.93,51-43,54-20,115-20,115s9,22,21,38,30,54,35,85,23,30,23,30H538s18,1,23-30,23-69,35-85,21-38,21-38S640,369.12,597,315.12Zm-21,151c-14,21-31.25,64.65-34,77-4,18-10,17-10,17v-101s40-20,40-68-41-66-41-66v58c0,14-15.5,18.5-15.5,18.5H470.67s-15.5-4.5-15.5-18.5v-58s-41,18-41,66,40,68,40,68v101s-6,1-10-17c-2.75-12.35-20-56-34-77s-49-74-9-134c0,0,25-45,92-47,67,2,91.85,47,91.85,47C625,392.12,590,445.12,576,466.12Z"/><path class="cls-1" d="M531.74,593.12H451.6a2.19,2.19,0,0,0-1.89,1.09l-6.07,7.32a2.18,2.18,0,0,0,0,2.18l6.07,7.32a2.17,2.17,0,0,0,1.89,1.09h80.14a2.17,2.17,0,0,0,1.89-1.09l6.07-7.32a2.18,2.18,0,0,0,0-2.18l-6.07-7.32A2.19,2.19,0,0,0,531.74,593.12Z"/><path class="cls-1" d="M526.08,619.46H457.26a1.89,1.89,0,0,0-1.63.94l-5.21,6.29a1.89,1.89,0,0,0,0,1.87l5.21,6.28a1.89,1.89,0,0,0,1.63.94h68.82a1.89,1.89,0,0,0,1.63-.94l5.21-6.28a1.89,1.89,0,0,0,0-1.87l-5.21-6.29A1.89,1.89,0,0,0,526.08,619.46Z"/><path class="cls-1" d="M491.67,645.12h35.5c0,12.07-16,22-35.5,22s-35.5-9.93-35.5-22V645Z"/><path class="cls-1" d="M502.17,229.42v-54.6a6,6,0,0,0-2.59-4.93l-3.51-2.42a6,6,0,0,0-6.8,0l-3.51,2.42a6,6,0,0,0-2.59,4.93v54.6a6,6,0,0,0,2.59,4.94l3.51,2.42a6,6,0,0,0,6.8,0l3.51-2.42A6,6,0,0,0,502.17,229.42Z"/><path class="cls-1" d="M328,385.12h-54.6a6,6,0,0,0-4.93,2.59L266,391.22a6,6,0,0,0,0,6.81l2.42,3.5a6,6,0,0,0,4.93,2.59H328a6,6,0,0,0,4.93-2.59l2.42-3.5a6,6,0,0,0,0-6.81l-2.42-3.51A6,6,0,0,0,328,385.12Z"/><path class="cls-1" d="M709,385.12h-54.6a6,6,0,0,0-4.93,2.59L647,391.22a6,6,0,0,0,0,6.81l2.42,3.5a6,6,0,0,0,4.93,2.59H709a6,6,0,0,0,4.93-2.59l2.42-3.5a6,6,0,0,0,0-6.81l-2.42-3.51A6,6,0,0,0,709,385.12Z"/><path class="cls-1" d="M651.69,540.21,613.08,501.6a6,6,0,0,0-5.32-1.66l-4.19.77a6,6,0,0,0-4.81,4.82l-.77,4.19a6,6,0,0,0,1.66,5.32l38.61,38.6a6,6,0,0,0,5.32,1.66l4.19-.77a6,6,0,0,0,4.81-4.81l.77-4.19A6,6,0,0,0,651.69,540.21Z"/><path class="cls-1" d="M638.26,232.6l-38.61,38.61a6,6,0,0,0-1.66,5.32l.77,4.19a6,6,0,0,0,4.81,4.81l4.19.77a6,6,0,0,0,5.32-1.66L651.69,246a6,6,0,0,0,1.66-5.32l-.77-4.19a6,6,0,0,0-4.81-4.82l-4.19-.77A6,6,0,0,0,638.26,232.6Z"/><path class="cls-1" d="M382.69,271.21,344.08,232.6a6,6,0,0,0-5.32-1.66l-4.19.77a6,6,0,0,0-4.81,4.82l-.77,4.19a6,6,0,0,0,1.66,5.32l38.61,38.6a6,6,0,0,0,5.32,1.66l4.19-.77a6,6,0,0,0,4.81-4.81l.77-4.19A6,6,0,0,0,382.69,271.21Z"/><path class="cls-1" d="M369.26,501.6l-38.61,38.61a6,6,0,0,0-1.66,5.32l.77,4.19a6,6,0,0,0,4.81,4.81l4.19.77a6,6,0,0,0,5.32-1.66L382.69,515a6,6,0,0,0,1.66-5.32l-.77-4.19a6,6,0,0,0-4.81-4.82l-4.19-.77A6,6,0,0,0,369.26,501.6Z"/><path class="cls-1" d="M169.53,714.27H191a1.89,1.89,0,0,1,1.89,1.89v63.62a1.9,1.9,0,0,0,1.89,1.9h55.39a1.9,1.9,0,0,0,1.89-1.9V716.16a1.89,1.89,0,0,1,1.89-1.89H275.4a1.9,1.9,0,0,1,1.9,1.89V795a1.9,1.9,0,0,1-1.9,1.9H169.53a1.9,1.9,0,0,1-1.89-1.9V716.16A1.89,1.89,0,0,1,169.53,714.27Z"/><path class="cls-1" d="M307.73,714.36H323a2,2,0,0,1,2,2V779.9a2,2,0,0,0,2,2h80.38a2,2,0,0,1,2,2v10.88a2,2,0,0,1-2,2H307.73a2,2,0,0,1-2-2V716.39A2,2,0,0,1,307.73,714.36Z"/><path class="cls-1" d="M436.41,714.36h15.22a2,2,0,0,1,2,2V779.9a2,2,0,0,0,2,2h80.38a2,2,0,0,1,2,2v10.88a2,2,0,0,1-2,2H436.41a2,2,0,0,1-2-2V716.39A2,2,0,0,1,436.41,714.36Z"/><path class="cls-1" d="M661.55,712.74a60.82,60.82,0,0,0-22.86,4.62,2.05,2.05,0,0,1-1.09.21l-1-.06a2,2,0,0,1-.89-.25c-2-1.06-11.4-5.52-29.73-5.52-20.81,0-49.66,15.57-49.66,49.66s22.85,35.74,24.89,35.74,22.73.9,22.73-29c0-22.79-13.68-27.3-20.16-28.16a2.16,2.16,0,0,1-1.42-3.48c2.82-3.65,7.93-6.6,17.37-9.08,8.45-2.22,16.91-.29,21.25,1.08a2.16,2.16,0,0,1,1.06,3.36c-2.93,3.92-8.14,13-8.14,28.37,0,21.32,8,36.9,24.63,36.9s24-21.2,24-35.75c0-11.7-6.62-24.9-9.22-30a2.16,2.16,0,0,1,1.53-3.12,42.2,42.2,0,0,1,7.18-.46c10,0,23.36,9,23.36,28.11,0,15.18-7.84,27.07-11.1,31.35a2.16,2.16,0,0,0,.46,3l9.46,6.89a2.18,2.18,0,0,0,2.66-.08c4.27-3.54,17.29-16.56,17.29-43.76C704.19,720.8,673.94,712.74,661.55,712.74Zm-75.21,55.47c.56,7.74-1.88,14.22-5.43,14.47s-6.88-5.82-7.43-13.56,1.88-14.22,5.44-14.47S585.79,760.47,586.34,768.21Zm51.72,13.61c-3.8,0-7.89-9.11-7.89-20.36s4.09-20.36,7.89-20.36,7.9,9.12,7.9,20.36S641.87,781.82,638.06,781.82Z"/><path class="cls-1" d="M744.79,736.23s2.42-9.47,9.46-9.47,10.8,4.22,11.57,9.23a3.87,3.87,0,0,1,0,.48v56.72a2.91,2.91,0,0,0,2.92,2.91h12.38a2.91,2.91,0,0,0,2.91-2.91v-56.4a2.77,2.77,0,0,1,.28-1.23c.94-2,4.39-8,11.64-8,8.68,0,13.7,7.74,13.79,8.64S813,744.14,813,759s-5.37,35.11-11.75,39.45-13.91,6.89-16.59,6.89H738.47s-19.34-1.66-19.34,20v5.43a2.91,2.91,0,0,0,2.91,2.91h12.69a2.92,2.92,0,0,0,2.85-2.26c.88-4,3.44-12,9.8-12h43.26c.25,0,2.31-.42,2.55-.49,3.32-.88,26.7-7.58,33.51-29.12,6.89-21.8,5.64-35.75,5.47-37.31a1.42,1.42,0,0,1,0-.29c0-2.65-.51-39.27-34.46-39.34h-.19c-1.16.07-12.45.8-19,6.34a2.94,2.94,0,0,1-3.8,0c-2.91-2.43-9.31-6.39-20.15-6.39-15.66,0-28.68,12.34-28.68,23.45,0,9.47.22,46.37.28,57a2.91,2.91,0,0,0,2.92,2.89h12.82a2.91,2.91,0,0,0,2.92-2.91v-57Z"/><path class="cls-1" d="M167.94,832.82V808.68h10.23a6.9,6.9,0,0,1,3.08.7,7.89,7.89,0,0,1,2.43,1.84,8.59,8.59,0,0,1,1.6,2.58,7.67,7.67,0,0,1,.58,2.91,8.4,8.4,0,0,1-2.08,5.54,7.42,7.42,0,0,1-2.37,1.8,7,7,0,0,1-3.07.68h-5.71v8.09Zm4.69-12.2h5.44a2.68,2.68,0,0,0,2.16-1.06,4.33,4.33,0,0,0,.87-2.85,4.76,4.76,0,0,0-.27-1.65,3.86,3.86,0,0,0-.72-1.24,2.85,2.85,0,0,0-1-.77,3.05,3.05,0,0,0-1.21-.25h-5.24Z"/><path class="cls-1" d="M245.46,808.68h4.15l9.18,24.14H254l-2.24-6h-8.44l-2.21,6h-4.82Zm5.41,14.83L247.53,814l-3.46,9.49Z"/><path class="cls-1" d="M328.11,812.8H320.4v20h-4.66v-20H308v-4.12h20.09Z"/><path class="cls-1" d="M400.16,812.8h-7.72v20h-4.66v-20h-7.71v-4.12h20.09Z"/><path class="cls-1" d="M458.64,808.68h4.15L472,832.82h-4.83l-2.24-6h-8.44l-2.21,6h-4.82Zm5.41,14.83L460.71,814l-3.46,9.49Z"/><path class="cls-1" d="M525.62,832.82V808.68H536.3a6.89,6.89,0,0,1,3.07.7,7.89,7.89,0,0,1,2.43,1.84,8.59,8.59,0,0,1,1.6,2.58,7.67,7.67,0,0,1,.58,2.91,8,8,0,0,1-1.17,4.26,6.75,6.75,0,0,1-3.18,2.78l5.51,9.07h-5.27l-4.93-8.09h-4.63v8.09Zm4.69-12.2h5.88a2.42,2.42,0,0,0,1.21-.31,3,3,0,0,0,1-.83,4.29,4.29,0,0,0,.65-1.24,5.1,5.1,0,0,0,.23-1.53,4.42,4.42,0,0,0-.27-1.57,4,4,0,0,0-.73-1.24,3.37,3.37,0,0,0-1-.81,2.66,2.66,0,0,0-1.21-.29h-5.68Z"/><path class="cls-1" d="M605.72,808.68h4.15l9.18,24.14h-4.83l-2.24-6h-8.43l-2.21,6h-4.83Zm5.41,14.83L607.8,814l-3.47,9.49Z"/><path class="cls-1" d="M672.7,832.82V808.68h4.7v24.14Z"/><path class="cls-1" d="M376.79,721.85h-2.85a10.58,10.58,0,0,0-1.3-3.14l2-2a.81.81,0,0,0,0-1.14l-2.38-2.37a.79.79,0,0,0-1.13,0l-2,2a10.63,10.63,0,0,0-3.14-1.3v-2.85a.8.8,0,0,0-.8-.8h-3.36a.8.8,0,0,0-.8.8v2.85a10.63,10.63,0,0,0-3.14,1.3l-2-2a.79.79,0,0,0-1.13,0l-2.38,2.37a.81.81,0,0,0,0,1.14l2,2a10.61,10.61,0,0,0-1.31,3.14h-2.84a.81.81,0,0,0-.81.81V726a.81.81,0,0,0,.81.81h2.84a10.61,10.61,0,0,0,1.31,3.14l-2,2a.81.81,0,0,0,0,1.14l2.38,2.37a.79.79,0,0,0,1.13,0l2-2a10.63,10.63,0,0,0,3.14,1.3v2.85a.8.8,0,0,0,.8.8h3.36a.8.8,0,0,0,.8-.8v-2.85a10.63,10.63,0,0,0,3.14-1.3l2,2a.79.79,0,0,0,1.13,0l2.38-2.37a.81.81,0,0,0,0-1.14l-2-2a10.58,10.58,0,0,0,1.3-3.14h2.85a.81.81,0,0,0,.81-.81v-3.35A.81.81,0,0,0,376.79,721.85Zm-13.28,8.31a6,6,0,1,1,6-6A6,6,0,0,1,363.51,730.16Z"/><path class="cls-2" d="M445.73,542.4c-19.61,7.23-26.43,9.31-26.43,9.31"/></svg>