<svg id="Layer_1" data-name="Layer 1" xmlns="http://www.w3.org/2000/svg" viewBox="0 0 1000 1000"><defs><style>.cls-1{fill:#fff;}</style></defs><path d="M337,644.29v0a2.33,2.33,0,0,1,.92-2,2.76,2.76,0,0,1,2.28-.55,15.67,15.67,0,0,0-2.71-6.61,2.53,2.53,0,0,1-1.51,1.12,2.71,2.71,0,0,1-2.3-.37,2.65,2.65,0,0,1-.31-4,2.51,2.51,0,0,1,.48-.38,15.76,15.76,0,0,0-6.65-2.75,2.64,2.64,0,0,1-.65,2.44,2.41,2.41,0,0,1-1.88.83h0a2.65,2.65,0,0,1-2.65-2.65,2.9,2.9,0,0,1,.07-.6,15.45,15.45,0,0,0-6.61,2.77,2.5,2.5,0,0,1,1.07,1.36,2.63,2.63,0,0,1-4.35,2.75,2.36,2.36,0,0,1-.35-.43,15.5,15.5,0,0,0-2.67,6.57,2.64,2.64,0,0,1,1.71.24,2.72,2.72,0,0,1,1.45,2.34v0a2.65,2.65,0,0,1-2.65,2.65,2.61,2.61,0,0,1-.48-.05,15.64,15.64,0,0,0,2.73,6.47,2.5,2.5,0,0,1,2.54-1,2.32,2.32,0,0,1,1.34.5,2.65,2.65,0,0,1,.15,3.89,3,3,0,0,1-.33.28,15.59,15.59,0,0,0,6.46,2.65,3,3,0,0,1,0-.42,2.65,2.65,0,0,1,2.65-2.65h0a2.65,2.65,0,0,1,2.65,2.65,3,3,0,0,1,0,.42,15.52,15.52,0,0,0,6.47-2.66,2.53,2.53,0,0,1-1-2.53,2.17,2.17,0,0,1,.47-1.3,2.64,2.64,0,0,1,3.93-.21,2.17,2.17,0,0,1,.31.37,15.77,15.77,0,0,0,2.73-6.52,2.63,2.63,0,0,1-1.15,0A2.74,2.74,0,0,1,337,644.29Zm-11,6.61a6.82,6.82,0,1,1,5.35-5.35A6.82,6.82,0,0,1,326,650.9Z"/><path class="cls-1" d="M648,358.17c-58.69-73.71-141.36-71.45-145.24-71.3-2.57-.11-86.15-3-145.33,71.3-60.11,75.49-28,160.76-28,160.76s12.59,30.76,29.36,53.12,41.94,75.49,48.93,118.83,32.15,41.94,32.15,41.94H565.51s25.16,1.4,32.15-41.94,32.15-96.46,48.93-118.83,29.35-53.12,29.35-53.12S708.1,433.66,648,358.17ZM618.63,569.26c-19.57,29.36-43.7,90.38-47.53,107.64-5.59,25.16-14,23.77-14,23.77V559.47s55.92-28,55.92-95.06-57.32-92.26-57.32-92.26v81.08c0,19.57-21.67,25.86-21.67,25.86h-62.7s-21.67-6.29-21.67-25.86V372.15s-57.32,25.16-57.32,92.26,55.92,95.06,55.92,95.06v141.2s-8.39,1.39-14-23.77c-3.84-17.26-28-78.28-47.53-107.64s-68.5-103.45-12.58-187.33c0,0,34.95-62.9,128.61-65.7,93.66,2.8,128.41,65.7,128.41,65.7C687.13,465.81,638.2,539.9,618.63,569.26Z"/><path class="cls-1" d="M556.72,746.79h-112a3.07,3.07,0,0,0-2.64,1.53l-8.48,10.23a3,3,0,0,0,0,3.05L442,771.83a3.06,3.06,0,0,0,2.64,1.52h112a3.06,3.06,0,0,0,2.64-1.52l8.48-10.23a3,3,0,0,0,0-3.05l-8.48-10.23A3.07,3.07,0,0,0,556.72,746.79Z"/><path class="cls-1" d="M548.81,783.62H452.59a2.63,2.63,0,0,0-2.27,1.31L443,793.71a2.61,2.61,0,0,0,0,2.62l7.28,8.79a2.63,2.63,0,0,0,2.27,1.31h96.22a2.63,2.63,0,0,0,2.27-1.31l7.28-8.79a2.61,2.61,0,0,0,0-2.62l-7.28-8.78A2.63,2.63,0,0,0,548.81,783.62Z"/><path class="cls-1" d="M500.7,819.49h49.63c0,16.87-22.41,30.75-49.63,30.75s-49.63-13.88-49.63-30.75v-.14Z"/><path class="cls-1" d="M515.38,239.61V160.78a6,6,0,0,0-2.59-4.94l-7.29-5a6,6,0,0,0-6.81,0l-7.28,5a6,6,0,0,0-2.59,4.94v78.83a6,6,0,0,0,2.59,4.94l7.28,5a6,6,0,0,0,6.81,0l7.29-5A6,6,0,0,0,515.38,239.61Z"/><path class="cls-1" d="M273.11,456H194.27a6,6,0,0,0-4.93,2.59l-5,7.29a6,6,0,0,0,0,6.8l5,7.29a6,6,0,0,0,4.93,2.59h78.84A6,6,0,0,0,278,480l5-7.29a6,6,0,0,0,0-6.8l-5-7.29A6,6,0,0,0,273.11,456Z"/><path class="cls-1" d="M805.73,456H726.89a6,6,0,0,0-4.93,2.59l-5,7.29a6,6,0,0,0,0,6.8l5,7.29a6,6,0,0,0,4.93,2.59h78.84a6,6,0,0,0,4.93-2.59l5-7.29a6,6,0,0,0,0-6.8l-5-7.29A6,6,0,0,0,805.73,456Z"/><path class="cls-1" d="M725.29,673.71,669.54,618a6,6,0,0,0-5.32-1.65l-8.7,1.6a6,6,0,0,0-4.82,4.81l-1.6,8.71a6,6,0,0,0,1.66,5.32l55.75,55.74a6,6,0,0,0,5.32,1.66l8.7-1.6a6,6,0,0,0,4.82-4.81l1.59-8.71A6,6,0,0,0,725.29,673.71Z"/><path class="cls-1" d="M706.51,241.92l-55.75,55.74A6,6,0,0,0,649.1,303l1.6,8.71a6,6,0,0,0,4.82,4.81l8.7,1.6a6,6,0,0,0,5.32-1.66l55.75-55.74a6,6,0,0,0,1.65-5.32l-1.59-8.71a6,6,0,0,0-4.82-4.81l-8.7-1.6A6,6,0,0,0,706.51,241.92Z"/><path class="cls-1" d="M349.24,297.66l-55.75-55.74a6,6,0,0,0-5.32-1.66l-8.7,1.6a6,6,0,0,0-4.82,4.81l-1.59,8.71a6,6,0,0,0,1.65,5.32l55.75,55.74a6,6,0,0,0,5.32,1.66l8.7-1.6a6,6,0,0,0,4.82-4.81l1.6-8.71A6,6,0,0,0,349.24,297.66Z"/><path class="cls-1" d="M330.46,618l-55.75,55.75a6,6,0,0,0-1.65,5.32l1.59,8.71a6,6,0,0,0,4.82,4.81l8.7,1.6a6,6,0,0,0,5.32-1.66l55.75-55.74a6,6,0,0,0,1.66-5.32l-1.6-8.71a6,6,0,0,0-4.82-4.81l-8.7-1.6A6,6,0,0,0,330.46,618Z"/></svg>