<?xml version="1.0" encoding="utf-8"?>
<!-- Generator: Adobe Illustrator 25.2.0, SVG Export Plug-In . SVG Version: 6.00 Build 0)  -->
<svg version="1.1" id="Layer_1" xmlns="http://www.w3.org/2000/svg" xmlns:xlink="http://www.w3.org/1999/xlink" x="0px" y="0px"
	 viewBox="0 0 1000 1000" style="enable-background:new 0 0 1000 1000;" xml:space="preserve">
<style type="text/css">
	.st0{fill:#FFFFFF;}
	.st1{fill:url(#SVGID_1_);}
	.st2{fill:url(#SVGID_2_);}
</style>
<polygon class="st0" points="923,439 560.2,943 209,759.3 133,464.6 209,155 629,87 "/>
<g id="gradie">
	
		<linearGradient id="SVGID_1_" gradientUnits="userSpaceOnUse" x1="140.5042" y1="822.0039" x2="860.5041" y2="181.0628" gradientTransform="matrix(1 0 0 -1 0 1002)">
		<stop  offset="0" style="stop-color:#F687FF"/>
		<stop  offset="0.81" style="stop-color:#409CFE"/>
	</linearGradient>
	<path class="st1" d="M500,28.6c-260.4,0-471.4,211-471.4,471.4s211,471.4,471.4,471.4s471.4-211,471.4-471.4S760.3,28.6,500,28.6z
		 M660.6,281.9l58.2-58.2c1.8-1.8,4.3-2.6,6.8-2.1l7.7,1.4c3.1,0.6,5.6,3,6.1,6.1l1.4,7.7c0.5,2.5-0.3,5-2.1,6.8l-58.2,58.2
		c-1.8,1.8-4.3,2.6-6.8,2.1l-7.7-1.4c-3.1-0.6-5.6-3-6.2-6.1l-1.4-7.7C658,286.2,658.8,283.7,660.6,281.9z M488.1,137.7
		c0-2.5,1.2-4.9,3.3-6.3l6.5-4.4c2.6-1.8,6.1-1.8,8.7,0l6.5,4.4c2.1,1.4,3.3,3.8,3.3,6.3v82.4c0,2.5-1.2,4.9-3.3,6.3l-6.5,4.4
		c-2.6,1.8-6.1,1.8-8.7,0l-6.5-4.4c-2.1-1.4-3.3-3.8-3.3-6.3L488.1,137.7L488.1,137.7z M259.1,236.9l1.4-7.7c0.6-3.1,3-5.6,6.2-6.1
		l7.7-1.4c2.5-0.5,5,0.3,6.8,2.1l58.2,58.2c1.8,1.8,2.6,4.3,2.1,6.8l-1.4,7.7c-0.6,3.1-3,5.6-6.1,6.1l-7.7,1.4
		c-2.5,0.5-5-0.3-6.8-2.1l-58.2-58.2C259.5,241.9,258.7,239.3,259.1,236.9L259.1,236.9z M176,478.8c-2.5,0-4.9-1.2-6.3-3.3l-4.4-6.5
		c-1.8-2.6-1.8-6.1,0-8.7l4.4-6.5c1.4-2.1,3.8-3.3,6.3-3.3h82.4c2.5,0,4.9,1.2,6.3,3.3l4.5,6.5c1.8,2.6,1.8,6.1,0,8.7l-4.5,6.5
		c-1.4,2.1-3.8,3.3-6.3,3.3H176z M339.4,642.9l-58.2,58.2c-1.8,1.8-4.3,2.6-6.8,2.1l-7.7-1.4c-3.1-0.6-5.6-3-6.1-6.1l-1.4-7.7
		c-0.5-2.5,0.3-5,2.1-6.8l58.2-58.2c1.8-1.8,4.3-2.6,6.8-2.1l7.7,1.4c3.1,0.6,5.6,3,6.1,6.1l1.4,7.7
		C342,638.6,341.2,641.2,339.4,642.9L339.4,642.9z M500.7,869.2c-28.9,0-52.7-14.7-52.7-32.7v-0.2l52.7,0.2h52.7
		C553.4,854.4,529.7,869.2,500.7,869.2L500.7,869.2z M562,811.9l-7.7,9.3c-0.5,0.9-1.4,1.4-2.4,1.4H449.7c-1,0-1.9-0.5-2.4-1.4
		l-7.7-9.3c-0.5-0.9-0.5-1.9,0-2.8l7.7-9.3c0.5-0.9,1.4-1.4,2.4-1.4h102.2c1,0,1.9,0.5,2.4,1.4l7.7,9.3
		C562.5,810,562.5,811.1,562,811.9z M572,775l-9,10.9c-0.6,1-1.7,1.6-2.8,1.6h-119c-1.2,0-2.2-0.6-2.8-1.6l-9-10.9
		c-0.6-1-0.6-2.2,0-3.2l9-10.9c0.6-1,1.6-1.6,2.8-1.6h119c1.2,0,2.2,0.6,2.8,1.6l9,10.9C572.6,772.8,572.6,774,572,775z
		 M603.7,699.9c-7.4,46-34.2,44.5-34.2,44.5H436.2c0,0-26.7,1.6-34.2-44.5s-34.1-102.4-52-126.2s-31.2-56.4-31.2-56.4
		s-34.1-90.5,29.7-170.7c62.6-78.6,151-75.8,154.3-75.7c3.3-0.1,91.7-2.9,154.3,75.7c63.8,80.2,29.7,170.7,29.7,170.7
		s-13.3,32.6-31.1,56.4S611.1,653.9,603.7,699.9L603.7,699.9z M740.9,688l-1.4,7.7c-0.6,3.1-3,5.6-6.1,6.1l-7.7,1.4
		c-2.5,0.5-5-0.3-6.8-2.1l-58.2-58.2c-1.8-1.8-2.6-4.3-2.1-6.8l1.4-7.7c0.6-3.1,3-5.5,6.1-6.1l7.7-1.4c2.5-0.5,5,0.3,6.8,2.1
		l58.2,58.2C740.5,683,741.3,685.5,740.9,688z M830.3,475.4c-1.4,2.1-3.8,3.3-6.3,3.3h-82.4c-2.5,0-4.9-1.2-6.3-3.3l-4.5-6.4
		c-1.8-2.6-1.8-6.1,0-8.7l4.5-6.5c1.4-2.1,3.8-3.3,6.3-3.3H824c2.5,0,4.9,1.2,6.3,3.3l4.5,6.5c1.8,2.6,1.8,6.1,0,8.7L830.3,475.4z"
		/>
	
		<linearGradient id="SVGID_2_" gradientUnits="userSpaceOnUse" x1="139.9143" y1="821.3414" x2="859.9142" y2="180.4002" gradientTransform="matrix(1 0 0 -1 0 1002)">
		<stop  offset="0" style="stop-color:#F687FF"/>
		<stop  offset="0.81" style="stop-color:#409CFE"/>
	</linearGradient>
	<path class="st2" d="M503,302.1c-99.5,3-136.6,69.8-136.6,69.8C307,461,359,539.6,379.8,570.8s46.4,96,50.5,114.3
		c5.9,26.7,14.9,25.2,14.9,25.2V560.4c0,0-59.4-29.7-59.4-100.9s60.9-98,60.9-98v86.1c0,20.8,23,27.5,23,27.5h66.6
		c0,0,23-6.7,23-27.5v-86.1c0,0,60.9,26.7,60.9,98s-59.4,100.9-59.4,100.9v149.9c0,0,8.9,1.5,14.8-25.2
		c4.1-18.3,29.7-83.1,50.5-114.3s72.7-109.8,13.3-198.9C639.3,371.9,602.4,305.1,503,302.1z"/>
</g>
</svg>
