<svg xmlns="http://www.w3.org/2000/svg" viewBox="0 0 1000 1000"><g id="gradie"><path d="M500,28.6C239.65,28.6,28.6,239.65,28.6,500S239.65,971.4,500,971.4s471.4-211,471.4-471.4S760.35,28.6,500,28.6ZM660.56,281.93l58.24-58.24a7.66,7.66,0,0,1,6.79-2.11L733.3,223a7.66,7.66,0,0,1,6.14,6.15l1.42,7.71a7.66,7.66,0,0,1-2.12,6.79l-58.23,58.23a7.66,7.66,0,0,1-6.79,2.12L666,302.57a7.66,7.66,0,0,1-6.15-6.14l-1.41-7.71A7.66,7.66,0,0,1,660.56,281.93ZM488.12,137.73a7.65,7.65,0,0,1,3.31-6.29l6.45-4.45a7.63,7.63,0,0,1,8.69,0l6.45,4.45a7.65,7.65,0,0,1,3.31,6.29v82.36a7.65,7.65,0,0,1-3.31,6.3l-6.45,4.45a7.63,7.63,0,0,1-8.69,0l-6.45-4.45a7.65,7.65,0,0,1-3.31-6.3Zm-229,99.12,1.42-7.71A7.66,7.66,0,0,1,266.7,223l7.71-1.41a7.66,7.66,0,0,1,6.79,2.11l58.24,58.24a7.66,7.66,0,0,1,2.11,6.79l-1.41,7.71a7.66,7.66,0,0,1-6.15,6.14L326.28,304a7.66,7.66,0,0,1-6.79-2.12l-58.23-58.23A7.66,7.66,0,0,1,259.14,236.85ZM176,478.77a7.65,7.65,0,0,1-6.3-3.31L165.29,469a7.67,7.67,0,0,1,0-8.69l4.45-6.45a7.65,7.65,0,0,1,6.3-3.31H258.4a7.67,7.67,0,0,1,6.3,3.31l4.45,6.45a7.67,7.67,0,0,1,0,8.69l-4.45,6.45a7.67,7.67,0,0,1-6.3,3.31Zm163.4,164.17L281.2,701.18a7.66,7.66,0,0,1-6.79,2.12l-7.71-1.42a7.65,7.65,0,0,1-6.14-6.14L259.14,688a7.66,7.66,0,0,1,2.12-6.79L319.49,623a7.63,7.63,0,0,1,6.79-2.11L334,622.3a7.67,7.67,0,0,1,6.15,6.14l1.41,7.71A7.64,7.64,0,0,1,339.44,642.94Zm161.3,226.23c-28.91,0-52.69-14.74-52.69-32.66v-.15l52.69.15h52.7C553.44,854.43,529.65,869.17,500.74,869.17ZM562,811.92l-7.74,9.33a2.76,2.76,0,0,1-2.4,1.39H449.66a2.79,2.79,0,0,1-2.41-1.39l-7.74-9.33a2.76,2.76,0,0,1,0-2.78l7.74-9.33a2.79,2.79,0,0,1,2.41-1.39H551.83a2.76,2.76,0,0,1,2.4,1.39l7.74,9.33A2.76,2.76,0,0,1,562,811.92ZM572,775l-9,10.86a3.23,3.23,0,0,1-2.81,1.62h-119a3.2,3.2,0,0,1-2.8-1.62l-9-10.86a3.23,3.23,0,0,1,0-3.24l9-10.86a3.22,3.22,0,0,1,2.8-1.62h119a3.25,3.25,0,0,1,2.81,1.62l9,10.86A3.23,3.23,0,0,1,572,775Zm31.66-75.1c-7.43,46-34.15,44.54-34.15,44.54H436.17S409.45,746,402,699.94s-34.14-102.42-52-126.17-31.17-56.41-31.17-56.41-34.14-90.55,29.69-170.71c62.62-78.64,151-75.84,154.27-75.71,3.32-.13,91.65-2.93,154.27,75.71,63.83,80.16,29.69,170.71,29.69,170.71S673.46,550,655.65,573.77,611.12,653.93,603.7,699.94ZM740.86,688l-1.42,7.71a7.65,7.65,0,0,1-6.14,6.14l-7.71,1.42a7.66,7.66,0,0,1-6.79-2.12l-58.24-58.24a7.64,7.64,0,0,1-2.11-6.79l1.41-7.71A7.67,7.67,0,0,1,666,622.3l7.71-1.41a7.63,7.63,0,0,1,6.79,2.11l58.23,58.24A7.66,7.66,0,0,1,740.86,688Zm89.4-212.57a7.65,7.65,0,0,1-6.3,3.31H741.6a7.67,7.67,0,0,1-6.3-3.31L730.85,469a7.67,7.67,0,0,1,0-8.69l4.45-6.45a7.67,7.67,0,0,1,6.3-3.31H824a7.65,7.65,0,0,1,6.3,3.31l4.45,6.45a7.67,7.67,0,0,1,0,8.69Z"/><path d="M503,302.12c-99.46,3-136.57,69.77-136.57,69.77C307,461,359,539.63,379.76,570.8s46.4,96,50.47,114.3c5.94,26.72,14.85,25.24,14.85,25.24V560.41S385.7,530.72,385.7,459.47s60.86-98,60.86-98v86.09c0,20.79,23,27.47,23,27.47h66.58s23-6.68,23-27.47V361.5s60.86,26.72,60.86,98-59.37,100.94-59.37,100.94V710.34s8.9,1.48,14.84-25.24C579.56,666.77,605.18,602,626,570.8S698.7,461,639.32,371.89C639.32,371.89,602.42,305.09,503,302.12Z"/></g></svg>