<svg id="Layer_1" data-name="Layer 1" xmlns="http://www.w3.org/2000/svg" viewBox="0 0 1017.62 1017.62"><defs><style>.cls-1{fill:#333;}</style></defs><path class="cls-1" d="M502.48,410.43h-23s-15.5-4.5-15.5-18.5v-58s-41,18-41,66,40,68,40,68v101s-6,1-10-17c-2.75-12.35-20-56-34-77s-49-74-9-134c0,0,25-45,92-47v-21s-61-3-104,51-20,115-20,115,9,22,21,38,30,54,35,85,23,30,23,30h46"/><path class="cls-1" d="M501.33,410.43h23s15.5-4.5,15.5-18.5v-58s41,18,41,66-40,68-40,68v101s6,1,10-17c2.75-12.35,20-56,34-77s49-74,9-134c0,0-24.85-45-91.85-47l-.15-21s61-3,104,51,20,115,20,115-9,22-21,38-30,54-35,85-23,30-23,30h-46"/><path class="cls-1" d="M540.55,601.93H460.41a2.19,2.19,0,0,0-1.89,1.09l-6.07,7.32a2.18,2.18,0,0,0,0,2.18l6.07,7.32a2.17,2.17,0,0,0,1.89,1.09h80.14a2.17,2.17,0,0,0,1.89-1.09l6.07-7.32a2.18,2.18,0,0,0,0-2.18L542.44,603A2.19,2.19,0,0,0,540.55,601.93Z"/><path class="cls-1" d="M534.89,628.27H466.07a1.89,1.89,0,0,0-1.63.94l-5.21,6.28a1.86,1.86,0,0,0,0,1.88l5.21,6.28a1.89,1.89,0,0,0,1.63.94h68.82a1.87,1.87,0,0,0,1.62-.94l5.22-6.28a1.91,1.91,0,0,0,0-1.88l-5.22-6.28A1.87,1.87,0,0,0,534.89,628.27Z"/><path class="cls-1" d="M500.48,653.93H536c0,12.07-16,22-35.5,22S465,666,465,653.93v-.1Z"/><path class="cls-1" d="M511,238.23v-54.6a6,6,0,0,0-2.59-4.93l-3.51-2.42a6,6,0,0,0-6.8,0l-3.51,2.42a6,6,0,0,0-2.59,4.93v54.6a6,6,0,0,0,2.59,4.93l3.51,2.42a6,6,0,0,0,6.8,0l3.51-2.42A6,6,0,0,0,511,238.23Z"/><path class="cls-1" d="M336.78,393.93h-54.6a6,6,0,0,0-4.94,2.59L274.83,400a6,6,0,0,0,0,6.8l2.41,3.51a6,6,0,0,0,4.94,2.59h54.6a6,6,0,0,0,4.93-2.59l2.42-3.51a6,6,0,0,0,0-6.8l-2.42-3.51A6,6,0,0,0,336.78,393.93Z"/><path class="cls-1" d="M717.78,393.93h-54.6a6,6,0,0,0-4.94,2.59L655.83,400a6,6,0,0,0,0,6.8l2.41,3.51a6,6,0,0,0,4.94,2.59h54.6a6,6,0,0,0,4.93-2.59l2.42-3.51a6,6,0,0,0,0-6.8l-2.42-3.51A6,6,0,0,0,717.78,393.93Z"/><path class="cls-1" d="M660.5,549l-38.61-38.61a6,6,0,0,0-5.32-1.66l-4.19.77a6,6,0,0,0-4.81,4.81l-.77,4.19a6,6,0,0,0,1.66,5.32l38.6,38.61a6,6,0,0,0,5.32,1.66l4.2-.77a6,6,0,0,0,4.81-4.81l.77-4.19A6,6,0,0,0,660.5,549Z"/><path class="cls-1" d="M647.06,241.41,608.46,280a6,6,0,0,0-1.66,5.32l.77,4.19a6,6,0,0,0,4.81,4.81l4.19.77a6,6,0,0,0,5.32-1.66l38.61-38.61a6,6,0,0,0,1.66-5.32l-.77-4.19a6,6,0,0,0-4.81-4.81l-4.2-.77A6,6,0,0,0,647.06,241.41Z"/><path class="cls-1" d="M391.5,280l-38.61-38.61a6,6,0,0,0-5.32-1.66l-4.19.77a6,6,0,0,0-4.81,4.81l-.77,4.19a6,6,0,0,0,1.66,5.32l38.6,38.61a6,6,0,0,0,5.32,1.66l4.2-.77a6,6,0,0,0,4.81-4.81l.77-4.19A6,6,0,0,0,391.5,280Z"/><path class="cls-1" d="M378.06,510.41,339.46,549a6,6,0,0,0-1.66,5.32l.77,4.19a6,6,0,0,0,4.81,4.81l4.19.77a6,6,0,0,0,5.32-1.66l38.61-38.61a6,6,0,0,0,1.66-5.32l-.77-4.19a6,6,0,0,0-4.81-4.81l-4.2-.77A6,6,0,0,0,378.06,510.41Z"/><path class="cls-1" d="M178.34,723.08h21.43a1.89,1.89,0,0,1,1.89,1.89v63.62a1.89,1.89,0,0,0,1.89,1.89h55.39a1.89,1.89,0,0,0,1.89-1.89V725a1.89,1.89,0,0,1,1.89-1.89h21.49a1.9,1.9,0,0,1,1.9,1.89v78.81a1.9,1.9,0,0,1-1.9,1.9H178.34a1.89,1.89,0,0,1-1.89-1.9V725A1.89,1.89,0,0,1,178.34,723.08Z"/><path class="cls-1" d="M316.54,723.17h15.21a2,2,0,0,1,2,2v63.51a2,2,0,0,0,2,2H416.2a2,2,0,0,1,2,2v10.87a2,2,0,0,1-2,2H316.54a2,2,0,0,1-2-2V725.2A2,2,0,0,1,316.54,723.17Z"/><path class="cls-1" d="M445.22,723.17h15.22a2,2,0,0,1,2,2v63.51a2,2,0,0,0,2,2h80.38a2,2,0,0,1,2,2v10.87a2,2,0,0,1-2,2H445.22a2,2,0,0,1-2-2V725.2A2,2,0,0,1,445.22,723.17Z"/><path class="cls-1" d="M670.36,721.55a60.82,60.82,0,0,0-22.86,4.62,2.17,2.17,0,0,1-1.09.21l-1-.06a2.12,2.12,0,0,1-.89-.25c-2-1.06-11.4-5.52-29.73-5.52-20.81,0-49.66,15.57-49.66,49.66S588,806,590.06,806s22.73.9,22.73-29c0-22.79-13.68-27.3-20.16-28.16a2.16,2.16,0,0,1-1.42-3.48c2.82-3.65,7.93-6.6,17.36-9.08,8.46-2.23,16.92-.29,21.26,1.08a2.15,2.15,0,0,1,1,3.36c-2.93,3.92-8.14,13-8.14,28.37,0,21.32,8,36.9,24.64,36.9s24-21.2,24-35.75c0-11.7-6.62-24.9-9.22-30a2.16,2.16,0,0,1,1.53-3.12,42.2,42.2,0,0,1,7.18-.46c10,0,23.36,9,23.36,28.11,0,15.18-7.84,27.07-11.1,31.34a2.17,2.17,0,0,0,.46,3.06l9.46,6.88a2.16,2.16,0,0,0,2.66-.07C700,802.39,713,789.37,713,762.16,713,729.61,682.74,721.55,670.36,721.55ZM595.15,777c.55,7.74-1.88,14.22-5.43,14.47s-6.88-5.82-7.43-13.56,1.88-14.22,5.43-14.47S594.6,769.27,595.15,777Zm51.72,13.61c-3.81,0-7.89-9.11-7.89-20.36s4.08-20.36,7.89-20.36,7.9,9.12,7.9,20.36S650.68,790.63,646.87,790.63Z"/><path class="cls-1" d="M753.59,745s2.43-9.47,9.47-9.47,10.79,4.22,11.56,9.22a2.77,2.77,0,0,1,0,.49V802a2.91,2.91,0,0,0,2.91,2.92H790a2.91,2.91,0,0,0,2.91-2.92V745.6a2.74,2.74,0,0,1,.28-1.23c.94-2,4.39-8,11.64-8,8.68,0,13.7,7.74,13.78,8.63s3.2,8,3.2,22.77S816.4,802.87,810,807.21s-13.91,6.89-16.6,6.89H747.28s-19.34-1.66-19.34,20v5.42a2.91,2.91,0,0,0,2.91,2.92h12.69a2.9,2.9,0,0,0,2.84-2.27c.89-4,3.44-12,9.81-12h43.26c.25,0,2.3-.42,2.55-.49,3.32-.88,26.7-7.58,33.51-29.13,6.89-21.79,5.63-35.74,5.46-37.3a2.81,2.81,0,0,1,0-.29c0-2.65-.51-39.27-34.46-39.34h-.19c-1.17.06-12.45.8-19,6.34a2.92,2.92,0,0,1-3.79.05c-2.91-2.44-9.31-6.39-20.15-6.39-15.66,0-28.68,12.34-28.68,23.44,0,9.48.22,46.38.28,57a2.91,2.91,0,0,0,2.91,2.89h12.83a2.91,2.91,0,0,0,2.91-2.92V745"/><path class="cls-1" d="M176.75,841.63V817.49H187a6.8,6.8,0,0,1,3.08.7,8,8,0,0,1,2.43,1.83,8.85,8.85,0,0,1,1.6,2.59,7.67,7.67,0,0,1,.58,2.91,8.54,8.54,0,0,1-2.08,5.54,7.35,7.35,0,0,1-2.38,1.8,6.93,6.93,0,0,1-3.06.68h-5.71v8.09Zm4.69-12.2h5.44a2.71,2.71,0,0,0,2.16-1.06,4.33,4.33,0,0,0,.87-2.85,4.68,4.68,0,0,0-.27-1.65,4,4,0,0,0-.72-1.24,2.8,2.8,0,0,0-1-.77,3,3,0,0,0-1.2-.25h-5.24Z"/><path class="cls-1" d="M254.27,817.49h4.15l9.18,24.14h-4.83l-2.24-6h-8.44l-2.21,6h-4.82Zm5.4,14.83-3.33-9.49-3.46,9.49Z"/><path class="cls-1" d="M336.92,821.61h-7.71v20h-4.66v-20h-7.72v-4.12h20.09Z"/><path class="cls-1" d="M409,821.61h-7.72v20h-4.66v-20h-7.71v-4.12H409Z"/><path class="cls-1" d="M467.45,817.49h4.15l9.18,24.14H476l-2.25-6h-8.43l-2.21,6h-4.82Zm5.41,14.83-3.34-9.49-3.46,9.49Z"/><path class="cls-1" d="M534.43,841.63V817.49h10.68a6.75,6.75,0,0,1,3.07.7,8,8,0,0,1,2.43,1.83,8.85,8.85,0,0,1,1.6,2.59,7.67,7.67,0,0,1,.58,2.91,8,8,0,0,1-1.17,4.26,6.77,6.77,0,0,1-3.18,2.77l5.51,9.08h-5.28l-4.93-8.09h-4.62v8.09Zm4.69-12.2H545a2.53,2.53,0,0,0,1.21-.31,3.07,3.07,0,0,0,1-.83,4,4,0,0,0,.64-1.24,4.81,4.81,0,0,0,.24-1.53,4.42,4.42,0,0,0-.27-1.57,4,4,0,0,0-.73-1.24,3.56,3.56,0,0,0-1-.82,2.78,2.78,0,0,0-1.21-.28h-5.68Z"/><path class="cls-1" d="M614.53,817.49h4.15l9.18,24.14H623l-2.24-6h-8.43l-2.21,6h-4.83Zm5.41,14.83-3.33-9.49-3.47,9.49Z"/><path class="cls-1" d="M681.51,841.63V817.49h4.69v24.14Z"/><path class="cls-1" d="M385.6,730.66h-2.85a10.58,10.58,0,0,0-1.3-3.14l2-2a.8.8,0,0,0,0-1.13L381.09,722a.79.79,0,0,0-1.13,0l-2,2a10.74,10.74,0,0,0-3.14-1.3v-2.85a.8.8,0,0,0-.8-.8h-3.36a.8.8,0,0,0-.8.8v2.85a10.8,10.8,0,0,0-3.15,1.3l-2-2a.79.79,0,0,0-1.13,0l-2.38,2.37a.8.8,0,0,0,0,1.13l2,2a10.85,10.85,0,0,0-1.3,3.14H359a.8.8,0,0,0-.8.8v3.36a.8.8,0,0,0,.8.81h2.85a10.85,10.85,0,0,0,1.3,3.14l-2,2a.81.81,0,0,0,0,1.14l2.38,2.37a.8.8,0,0,0,1.13,0l2-2a10.8,10.8,0,0,0,3.15,1.3v2.85a.8.8,0,0,0,.8.8H374a.8.8,0,0,0,.8-.8v-2.85a10.74,10.74,0,0,0,3.14-1.3l2,2a.8.8,0,0,0,1.13,0l2.38-2.37a.81.81,0,0,0,0-1.14l-2-2a10.58,10.58,0,0,0,1.3-3.14h2.85a.8.8,0,0,0,.8-.81v-3.36A.8.8,0,0,0,385.6,730.66ZM372.32,739a6,6,0,1,1,6-6A6,6,0,0,1,372.32,739Z"/></svg>