<svg id="Layer_1" data-name="Layer 1" xmlns="http://www.w3.org/2000/svg" viewBox="0 0 1017.19 1017.19"><defs><style>.cls-1{fill:#333;}</style></defs><path class="cls-1" d="M110.54,439.16h25.8a2.28,2.28,0,0,1,2.28,2.28v76.63a2.29,2.29,0,0,0,2.29,2.28h66.71a2.28,2.28,0,0,0,2.28-2.28V441.44a2.28,2.28,0,0,1,2.28-2.28h25.88a2.28,2.28,0,0,1,2.28,2.28v94.92a2.29,2.29,0,0,1-2.28,2.29H110.54a2.29,2.29,0,0,1-2.28-2.29V441.44A2.28,2.28,0,0,1,110.54,439.16Z"/><path class="cls-1" d="M277,439.26h18.33a2.45,2.45,0,0,1,2.45,2.45v76.5a2.44,2.44,0,0,0,2.44,2.44h96.83a2.45,2.45,0,0,1,2.45,2.45v13.1a2.45,2.45,0,0,1-2.45,2.45H277a2.45,2.45,0,0,1-2.44-2.45V441.71A2.44,2.44,0,0,1,277,439.26Z"/><path class="cls-1" d="M432,439.26h18.33a2.45,2.45,0,0,1,2.45,2.45v76.5a2.44,2.44,0,0,0,2.44,2.44h96.83a2.45,2.45,0,0,1,2.45,2.45v13.1a2.45,2.45,0,0,1-2.45,2.45H432a2.45,2.45,0,0,1-2.44-2.45V441.71A2.44,2.44,0,0,1,432,439.26Z"/><path class="cls-1" d="M703.19,437.31c-13.05,0-24.8,4.21-27.54,5.56a2.6,2.6,0,0,1-1.31.27l-1.16-.08a2.68,2.68,0,0,1-1.07-.3c-2.39-1.28-13.73-6.65-35.81-6.65-25.06,0-59.82,18.76-59.82,59.81S604,539,606.47,539s27.37,1.07,27.37-34.91c0-27.45-16.47-32.88-24.28-33.92a2.61,2.61,0,0,1-1.71-4.19c3.4-4.4,9.55-7.95,20.92-10.94,10.18-2.68,20.37-.35,25.6,1.3a2.6,2.6,0,0,1,1.27,4.05c-3.53,4.72-9.81,15.71-9.81,34.17,0,25.68,9.69,44.44,29.68,44.44s28.91-25.53,28.91-43.06c0-14.09-8-30-11.11-36.16a2.6,2.6,0,0,1,1.85-3.75,51.24,51.24,0,0,1,8.65-.55c12,0,28.14,10.79,28.14,33.85,0,18.28-9.46,32.61-13.38,37.76a2.61,2.61,0,0,0,.55,3.68l11.4,8.29a2.61,2.61,0,0,0,3.2-.09c5.15-4.27,20.83-20,20.83-52.71C754.55,447,718.11,437.31,703.19,437.31ZM612.6,504.12c.66,9.33-2.27,17.14-6.54,17.44s-8.29-7-8.95-16.33,2.26-17.14,6.54-17.44S611.94,494.8,612.6,504.12Zm62.3,16.41c-4.59,0-9.51-11-9.51-24.53s4.92-24.53,9.51-24.53,9.5,11,9.5,24.53S679.48,520.53,674.9,520.53Z"/><path class="cls-1" d="M803.45,465.6s2.92-11.4,11.4-11.4,13,5.09,13.93,11.11a3.9,3.9,0,0,1,0,.59v68.31a3.51,3.51,0,0,0,3.51,3.51h14.92a3.51,3.51,0,0,0,3.51-3.51V466.29a3.45,3.45,0,0,1,.33-1.49c1.13-2.4,5.29-9.65,14-9.65,10.46,0,16.5,9.33,16.61,10.4s3.84,9.59,3.84,27.43-6.46,42.28-14.15,47.51-16.76,8.3-20,8.3H795.84s-23.3-2-23.3,24v6.54a3.51,3.51,0,0,0,3.51,3.51h15.29a3.49,3.49,0,0,0,3.42-2.73c1.07-4.85,4.15-14.49,11.81-14.49h52.11c.3,0,2.78-.51,3.07-.59,4-1.06,32.16-9.13,40.37-35.09,8.3-26.25,6.78-43.05,6.58-44.93,0-.12,0-.23,0-.35,0-3.19-.61-47.3-41.5-47.39h-.24c-1.4.07-15,.95-22.91,7.63a3.54,3.54,0,0,1-4.58.06c-3.5-2.93-11.21-7.7-24.26-7.7-18.87,0-34.55,14.87-34.55,28.24,0,11.41.26,55.86.34,68.69a3.5,3.5,0,0,0,3.51,3.48h15.45a3.51,3.51,0,0,0,3.51-3.51V465.6"/><path class="cls-1" d="M108.62,582V552.88H121a8.21,8.21,0,0,1,3.7.84,9.44,9.44,0,0,1,2.93,2.21,10.61,10.61,0,0,1,1.93,3.11,9.44,9.44,0,0,1,.69,3.5,10.17,10.17,0,0,1-2.49,6.68,9.23,9.23,0,0,1-2.87,2.17,8.25,8.25,0,0,1-3.69.82h-6.88V582Zm5.65-14.71h6.56a3.24,3.24,0,0,0,2.6-1.27,5.27,5.27,0,0,0,1-3.44,5.63,5.63,0,0,0-.33-2,4.76,4.76,0,0,0-.86-1.5,3.42,3.42,0,0,0-1.25-.92,3.71,3.71,0,0,0-1.45-.31h-6.31Z"/><path class="cls-1" d="M202,552.88h5L218.05,582h-5.82l-2.7-7.25H199.37L196.71,582H190.9Zm6.51,17.85-4-11.42-4.17,11.42Z"/><path class="cls-1" d="M301.55,557.83h-9.29V582h-5.61V557.83h-9.3v-5h24.2Z"/><path class="cls-1" d="M388.34,557.83H379V582h-5.61V557.83h-9.3v-5h24.21Z"/><path class="cls-1" d="M458.78,552.88h5L474.83,582H469l-2.71-7.25H456.16L453.49,582h-5.81Zm6.51,17.85-4-11.42-4.18,11.42Z"/><path class="cls-1" d="M539.46,582V552.88h12.86a8.24,8.24,0,0,1,3.7.84,9.56,9.56,0,0,1,2.93,2.21,10.38,10.38,0,0,1,1.92,3.11,9.26,9.26,0,0,1,.7,3.5,9.66,9.66,0,0,1-1.41,5.14,8.06,8.06,0,0,1-3.83,3.34L563,582h-6.35l-5.93-9.75h-5.57V582Zm5.65-14.71h7.08a3.06,3.06,0,0,0,1.46-.36,3.73,3.73,0,0,0,1.16-1,4.9,4.9,0,0,0,.78-1.49,5.88,5.88,0,0,0,.29-1.85,5.19,5.19,0,0,0-.33-1.88,5.07,5.07,0,0,0-.88-1.5,4,4,0,0,0-1.27-1,3.32,3.32,0,0,0-1.45-.35h-6.84Z"/><path class="cls-1" d="M635.94,552.88h5L652,582h-5.82l-2.7-7.25H633.32L630.66,582h-5.82Zm6.52,17.85-4-11.42-4.18,11.42Z"/><path class="cls-1" d="M716.62,582V552.88h5.65V582Z"/><path class="cls-1" d="M360.19,448.29h-3.43a12.92,12.92,0,0,0-1.57-3.79l2.43-2.42a1,1,0,0,0,0-1.37l-2.86-2.86a1,1,0,0,0-1.37,0L351,440.28a12.49,12.49,0,0,0-3.78-1.57v-3.43a1,1,0,0,0-1-1h-4a1,1,0,0,0-1,1v3.43a12.66,12.66,0,0,0-3.79,1.57L335,437.85a1,1,0,0,0-1.37,0l-2.86,2.86a1,1,0,0,0,0,1.37l2.43,2.42a12.92,12.92,0,0,0-1.57,3.79h-3.43a1,1,0,0,0-1,1v4a1,1,0,0,0,1,1h3.43a12.86,12.86,0,0,0,1.57,3.78l-2.43,2.43a1,1,0,0,0,0,1.37l2.86,2.86a1,1,0,0,0,1.37,0l2.42-2.43a12.92,12.92,0,0,0,3.79,1.57v3.43a1,1,0,0,0,1,1h4a1,1,0,0,0,1-1v-3.43a12.75,12.75,0,0,0,3.78-1.57l2.43,2.43a1,1,0,0,0,1.37,0l2.86-2.86a1,1,0,0,0,0-1.37l-2.43-2.43a12.86,12.86,0,0,0,1.57-3.78h3.43a1,1,0,0,0,1-1v-4A1,1,0,0,0,360.19,448.29Zm-16,10a7.24,7.24,0,1,1,7.24-7.24A7.24,7.24,0,0,1,344.19,458.29Z"/></svg>