<svg xmlns="http://www.w3.org/2000/svg" viewBox="0 0 1155.36 1155.36"><defs><style>.cls-1{fill:#333;}</style></defs><g id="gradie"><path class="cls-1" d="M577.68,42C281.85,42,42,281.85,42,577.68s239.81,535.64,535.64,535.64,535.64-239.81,535.64-535.64S873.51,42,577.68,42Zm166,312.84,61.38-61.38a6.6,6.6,0,0,1,5.85-1.82l9.59,1.76a6.58,6.58,0,0,1,5.3,5.3l1.76,9.59a6.6,6.6,0,0,1-1.82,5.85l-61.38,61.38a6.6,6.6,0,0,1-5.86,1.83l-9.59-1.76a6.63,6.63,0,0,1-5.3-5.3l-1.76-9.59A6.6,6.6,0,0,1,743.69,354.88ZM565.37,204.16a6.58,6.58,0,0,1,2.85-5.43l8-5.54a6.63,6.63,0,0,1,7.5,0l8,5.54a6.58,6.58,0,0,1,2.85,5.43V291a6.59,6.59,0,0,1-2.85,5.43l-8,5.53a6.59,6.59,0,0,1-7.5,0l-8-5.53a6.59,6.59,0,0,1-2.85-5.43ZM327.79,308.33l1.76-9.59a6.6,6.6,0,0,1,5.3-5.3l9.59-1.76a6.63,6.63,0,0,1,5.86,1.82l61.38,61.38a6.63,6.63,0,0,1,1.82,5.86l-1.76,9.59a6.6,6.6,0,0,1-5.3,5.3l-9.59,1.76a6.58,6.58,0,0,1-5.85-1.83l-61.38-61.38A6.58,6.58,0,0,1,327.79,308.33ZM235.61,555.65l-5.53-8a6.58,6.58,0,0,1,0-7.49l5.53-8a6.59,6.59,0,0,1,5.43-2.86h86.81a6.59,6.59,0,0,1,5.43,2.86l5.53,8a6.58,6.58,0,0,1,0,7.49l-5.53,8a6.6,6.6,0,0,1-5.43,2.85H241A6.6,6.6,0,0,1,235.61,555.65Zm176.07,172.6L350.3,789.63a6.6,6.6,0,0,1-5.86,1.83l-9.59-1.76a6.63,6.63,0,0,1-5.3-5.3l-1.76-9.59a6.6,6.6,0,0,1,1.83-5.86L391,707.57a6.6,6.6,0,0,1,5.85-1.82l9.59,1.76a6.58,6.58,0,0,1,5.3,5.3l1.76,9.59A6.6,6.6,0,0,1,411.68,728.25ZM578.45,963.34c-30,0-54.64-15.29-54.64-33.87v-.15l54.64.15H633.1C633.1,948.05,608.43,963.34,578.45,963.34ZM641.94,904l-8,9.67a2.9,2.9,0,0,1-2.5,1.44H525.48a2.9,2.9,0,0,1-2.5-1.44L515,904a2.87,2.87,0,0,1,0-2.89l8-9.67a2.89,2.89,0,0,1,2.5-1.45H631.42a2.89,2.89,0,0,1,2.5,1.45l8,9.67A2.87,2.87,0,0,1,641.94,904Zm10.44-38.25L643,877a3.36,3.36,0,0,1-2.91,1.68H516.77a3.36,3.36,0,0,1-2.91-1.68l-9.34-11.26a3.36,3.36,0,0,1,0-3.36l9.34-11.26a3.36,3.36,0,0,1,2.91-1.68H640.13a3.36,3.36,0,0,1,2.91,1.68l9.34,11.26A3.36,3.36,0,0,1,652.38,865.73ZM581.53,554.65h33.64S639,547.73,639,526.18V436.9s63.11,27.7,63.11,101.59-61.57,104.67-61.57,104.67V798.63s9.24,1.54,15.39-26.17c4.23-19,30.79-86.2,52.34-118.52S783.72,540,722.15,447.67c0,0-38.26-69.27-141.39-72.35-103.13,3.08-141.62,72.35-141.62,72.35C377.57,540,431.45,621.61,453,653.94s48.11,99.52,52.33,118.52c6.16,27.71,15.4,26.17,15.4,26.17V643.16s-61.57-30.78-61.57-104.67S522.27,436.9,522.27,436.9v89.28c0,21.55,23.86,28.47,23.86,28.47h35.4Zm0,0M579,834H511.49s-27.71,1.54-35.4-46.17S440.68,681.64,422.21,657s-32.32-58.5-32.32-58.5-35.41-93.89,30.78-177c64.94-81.55,156.6-78.9,160-78.77,3.45-.13,95-2.78,159.91,78.77,66.19,83.13,30.79,177,30.79,177s-13.85,33.87-32.33,58.5-46.17,83.12-53.87,130.84S649.81,834,649.81,834Zm248.57-59.22-1.76,9.59a6.6,6.6,0,0,1-5.3,5.3l-9.59,1.76a6.58,6.58,0,0,1-5.85-1.83l-61.38-61.38a6.58,6.58,0,0,1-1.83-5.85l1.76-9.59a6.6,6.6,0,0,1,5.3-5.3l9.59-1.76a6.63,6.63,0,0,1,5.86,1.82L825.75,769A6.63,6.63,0,0,1,827.57,774.81Zm97.72-227.19-5.54,8a6.6,6.6,0,0,1-5.43,2.85H827.51a6.6,6.6,0,0,1-5.43-2.85l-5.53-8a6.58,6.58,0,0,1,0-7.49l5.53-8a6.59,6.59,0,0,1,5.43-2.86h86.81a6.59,6.59,0,0,1,5.43,2.86l5.54,8A6.61,6.61,0,0,1,925.29,547.62Z"/></g></svg>